<?xml version="1.0" encoding="UTF-8"?>
<svg width="90px" height="49px" viewBox="0 0 90 49" version="1.1" xmlns="http://www.w3.org/2000/svg" xmlns:xlink="http://www.w3.org/1999/xlink">
    <!-- Generator: Sketch 59.1 (86144) - https://sketch.com -->
    <title>Shape</title>
    <desc>Created with Sketch.</desc>
    <g id="Schedule" stroke="none" stroke-width="1" fill="none" fill-rule="evenodd">
        <g id="Vendors" transform="translate(-675.000000, -495.000000)" fill="#7C878D" fill-rule="nonzero">
            <path d="M759.82,500.57577 C759.68,498.52677 758.086,496.71077 756.056,496.37677 C745.728,494.67377 735.055,494.54977 724.692,496.00977 C722.817,496.27177 721.137,497.37077 720.001,498.88677 C718.865,497.37077 717.185,496.27177 715.311,496.00977 C704.944,494.54977 694.272,494.67377 683.946,496.37677 C681.915,496.71077 680.322,498.52677 680.182,500.57577 C677.232,501.57477 675,504.55477 675,507.75777 L675,533.36777 C675,535.14077 675.688,536.71777 676.938,537.80677 C677.999,538.73177 679.356,539.22277 680.873,539.22277 C681.207,539.22277 681.548,539.19977 681.895,539.15077 C692.233,537.22977 702.688,536.95577 712.991,538.30077 C713.61,541.30677 716.276,543.57377 719.462,543.57377 L720.537,543.57377 C723.723,543.57377 726.39,541.30677 727.008,538.30077 C737.312,536.95677 747.768,537.22977 758.174,539.16177 C758.499,539.20677 758.82,539.22877 759.136,539.22877 C760.625,539.22877 761.993,538.73777 763.061,537.80677 C764.312,536.71777 765,535.14077 765,533.36677 L765,507.75677 C765,504.55477 762.768,501.57477 759.82,500.57577 Z M725.108,498.97977 C735.176,497.56277 745.538,497.68377 755.567,499.33577 C756.236,499.44577 756.846,500.17277 756.846,500.85977 L756.846,529.43477 C756.846,529.90677 756.525,530.13277 756.054,530.05777 C750.491,529.14077 744.811,528.67577 739.172,528.67577 C733.533,528.67577 727.853,529.14077 722.291,530.05777 C722.09,530.08877 721.851,530.10277 721.663,529.91577 C721.527,529.78077 721.499,529.57977 721.499,529.43577 L721.499,503.23477 C721.5,501.23677 723.186,499.24877 725.108,498.97977 Z M684.432,499.33577 C694.461,497.68377 704.823,497.56177 714.892,498.97977 C716.814,499.24877 718.499,501.23677 718.499,503.23377 L718.499,529.43477 C718.499,529.90677 718.179,530.13277 717.707,530.05777 C712.144,529.14077 706.464,528.67577 700.825,528.67577 C695.186,528.67577 689.506,529.14077 683.944,530.05777 C683.744,530.08877 683.504,530.10277 683.316,529.91577 C683.18,529.78077 683.152,529.57977 683.152,529.43577 L683.152,500.86077 C683.153,500.17277 683.763,499.44577 684.432,499.33577 Z M759.846,503.91377 C761.105,504.74677 762,506.22177 762,507.75777 L762,533.36677 C762,534.27277 761.686,535.02677 761.091,535.54577 C760.46,536.09677 759.57,536.32577 758.653,536.20077 C747.608,534.14777 736.432,533.90177 725.433,535.47077 C725.405,535.47477 725.38,535.48477 725.352,535.49077 C725.342,535.49277 725.332,535.49577 725.321,535.49877 C725.231,535.51877 725.145,535.54477 725.063,535.57977 C724.787,535.69777 724.564,535.88577 724.405,536.12177 C724.401,536.12777 724.397,536.13477 724.393,536.14077 C724.346,536.21277 724.305,536.28777 724.271,536.36777 L724.251,536.42177 L724.251,536.42177 C724.224,536.49177 724.201,536.56177 724.185,536.63577 C724.178,536.66877 724.174,536.70177 724.169,536.73477 C724.16,536.79577 724.152,536.85577 724.151,536.91877 C724.15,536.93477 724.146,536.94977 724.146,536.96677 C724.146,538.95577 722.528,540.57377 720.539,540.57377 L719.464,540.57377 C717.475,540.57377 715.857,538.95577 715.857,536.95577 C715.857,536.94077 715.853,536.92577 715.852,536.91077 C715.85,536.85677 715.843,536.80477 715.836,536.75177 C715.83,536.70577 715.824,536.65877 715.814,536.61377 C715.802,536.56377 715.785,536.51677 715.769,536.46877 C715.754,536.42477 715.74,536.38077 715.721,536.33877 C715.699,536.29077 715.673,536.24677 715.646,536.20177 C715.624,536.16477 715.604,536.12777 715.58,536.09377 C715.545,536.04477 715.506,535.99977 715.465,535.95577 C715.443,535.93177 715.422,535.90577 715.398,535.88277 C715.347,535.83377 715.292,535.78977 715.234,535.74877 C715.216,535.73577 715.199,535.72077 715.18,535.70877 C715.114,535.66577 715.044,535.62977 714.972,535.59677 C714.957,535.58977 714.943,535.58177 714.928,535.57577 C714.852,535.54477 714.772,535.52077 714.689,535.50177 C714.674,535.49877 714.66,535.49377 714.646,535.49077 C714.62,535.48577 714.595,535.47577 714.568,535.47177 C703.568,533.90277 692.392,534.14877 681.418,536.19077 C680.432,536.32477 679.542,536.09677 678.91,535.54677 C678.314,535.02677 678,534.27377 678,533.36677 L678,507.75677 C678,506.22077 678.895,504.74677 680.153,503.91377 L680.153,529.43477 C680.153,530.44277 680.525,531.36877 681.2,532.04077 C682.014,532.85277 683.169,533.22677 684.431,533.01677 C695.237,531.23677 706.414,531.23677 717.221,533.01677 C717.449,533.05477 717.671,533.07177 717.888,533.07177 C718.099,533.07177 718.3,533.04477 718.499,533.01377 L718.499,535.43977 C718.499,536.26877 719.17,536.93977 719.999,536.93977 C720.828,536.93977 721.499,536.26877 721.499,535.43977 L721.499,533.00377 C721.908,533.06877 722.332,533.09177 722.778,533.01777 C733.584,531.23777 744.761,531.23777 755.568,533.01777 C755.796,533.05577 756.018,533.07277 756.235,533.07277 C758.294,533.07277 759.846,531.50877 759.846,529.43477 L759.846,503.91377 Z M739,501.78377 C742.254441,501.78377 745.508198,502.033959 748.759926,502.534026 C751.199255,502.909117 753,505.007946 753,507.475937 L753,520.593705 C753,523.355128 750.761424,525.593705 748,525.593705 C747.848874,525.593705 747.697826,525.586853 747.547321,525.573171 L739,524.796141 L730.452679,525.573171 C727.702596,525.823178 725.270542,523.796466 725.020534,521.046383 C725.006852,520.895878 725,520.74483 725,520.593705 L725,507.475904 C725,505.007952 726.80073,502.90916 729.24001,502.534036 C732.491792,502.03396 735.745554,501.78377 739,501.78377 Z M689.251897,519.75652 C696.973897,518.45952 704.804897,518.45952 712.527897,519.75652 C713.344897,519.89452 713.895897,520.66752 713.758897,521.48452 C713.634897,522.21652 712.999897,522.73552 712.280897,522.73552 C712.198897,522.73552 712.114897,522.72852 712.030897,522.71452 C704.638897,521.47152 697.141897,521.47152 689.748897,522.71452 C688.934897,522.84952 688.158897,522.30052 688.020897,521.48452 C687.883897,520.66752 688.434897,519.89452 689.251897,519.75652 Z M739,504.78377 C735.898668,504.78377 732.797337,505.022239 729.696005,505.499178 C728.720292,505.649228 728,506.488748 728,507.475931 L728,520.593705 C728,520.654155 728.002741,520.714574 728.008214,520.774776 C728.108217,521.874809 729.081038,522.685494 730.181071,522.585491 L739,521.78377 L747.818929,522.585491 C747.879131,522.590964 747.93955,522.593833 748,522.593833 C749.104569,522.593833 750,521.698274 750,520.593705 L750,507.475937 C750,506.488742 749.279707,505.649212 748.30398,505.499176 C745.202653,505.022239 742.101327,504.78377 739,504.78377 Z M689.251897,512.75652 C696.973897,511.45952 704.804897,511.45952 712.527897,512.75652 C713.344897,512.89452 713.895897,513.66752 713.758897,514.48452 C713.634897,515.21652 712.999897,515.73552 712.280897,515.73552 C712.198897,515.73552 712.114897,515.72852 712.030897,515.71452 C704.638897,514.47152 697.141897,514.47152 689.748897,515.71452 C688.934897,515.84952 688.158897,515.30052 688.020897,514.48452 C687.883897,513.66752 688.434897,512.89452 689.251897,512.75652 Z M689.251897,505.75652 C696.973897,504.45952 704.804897,504.45952 712.527897,505.75652 C713.344897,505.89452 713.895897,506.66752 713.758897,507.48452 C713.634897,508.21652 712.999897,508.73552 712.280897,508.73552 C712.198897,508.73552 712.114897,508.72852 712.030897,508.71452 C704.638897,507.47152 697.141897,507.47152 689.748897,508.71452 C688.934897,508.84952 688.158897,508.30052 688.020897,507.48452 C687.883897,506.66752 688.434897,505.89452 689.251897,505.75652 Z" id="Shape"></path>
        </g>
    </g>
</svg>