<?xml version="1.0" encoding="UTF-8"?>
<svg width="24px" height="24px" viewBox="0 0 24 24" version="1.1" xmlns="http://www.w3.org/2000/svg" xmlns:xlink="http://www.w3.org/1999/xlink">
    <!-- Generator: Sketch 57.1 (83088) - https://sketch.com -->
    <title>003-instagram</title>
    <desc>Created with Sketch.</desc>
    <g id="Page-1" stroke="none" stroke-width="1" fill="none" fill-rule="evenodd">
        <g id="Desktop-HD" transform="translate(-304.000000, -4269.000000)" fill="#FFFFFF" fill-rule="nonzero">
            <g id="003-instagram" transform="translate(304.000000, 4269.000000)">
                <path d="M16.4839024,0 L7.49268293,0 C3.35522341,0 0,3.35522341 0,7.49268293 L0,16.4839024 C0,20.621362 3.35522341,23.9765854 7.49268293,23.9765854 L16.4839024,23.9765854 C20.621362,23.9765854 23.9765854,20.621362 23.9765854,16.4839024 L23.9765854,7.49268293 C23.9765854,3.35522341 20.621362,0 16.4839024,0 Z M21.7287805,16.4839024 C21.7287805,19.376078 19.376078,21.7287805 16.4839024,21.7287805 L7.49268293,21.7287805 C4.60050732,21.7287805 2.24780488,19.376078 2.24780488,16.4839024 L2.24780488,7.49268293 C2.24780488,4.60050732 4.60050732,2.24780488 7.49268293,2.24780488 L16.4839024,2.24780488 C19.376078,2.24780488 21.7287805,4.60050732 21.7287805,7.49268293 L21.7287805,16.4839024 Z" id="Shape"></path>
                <path d="M11.9882927,5.99414634 C8.67802537,5.99414634 5.99414634,8.67802537 5.99414634,11.9882927 C5.99414634,15.29856 8.67802537,17.982439 11.9882927,17.982439 C15.29856,17.982439 17.982439,15.29856 17.982439,11.9882927 C17.982439,8.67802537 15.29856,5.99414634 11.9882927,5.99414634 Z M11.9882927,15.7346341 C9.92330927,15.7346341 8.24195122,14.0532761 8.24195122,11.9882927 C8.24195122,9.92181073 9.92330927,8.24195122 11.9882927,8.24195122 C14.0532761,8.24195122 15.7346341,9.92181073 15.7346341,11.9882927 C15.7346341,14.0532761 14.0532761,15.7346341 11.9882927,15.7346341 Z" id="Shape"></path>
                <circle id="Oval" cx="18.432" cy="5.54458537" r="1"></circle>
            </g>
        </g>
    </g>
</svg>