<?xml version="1.0" encoding="UTF-8"?>
<svg width="24px" height="17px" viewBox="0 0 24 17" version="1.1" xmlns="http://www.w3.org/2000/svg" xmlns:xlink="http://www.w3.org/1999/xlink">
    <!-- Generator: Sketch 57.1 (83088) - https://sketch.com -->
    <title>004-youtube</title>
    <desc>Created with Sketch.</desc>
    <g id="Page-1" stroke="none" stroke-width="1" fill="none" fill-rule="evenodd">
        <g id="Desktop-HD" transform="translate(-384.000000, -4272.000000)" fill="#FFFFFF" fill-rule="nonzero">
            <g id="004-youtube" transform="translate(384.000000, 4272.000000)">
                <path d="M22.9575805,1.58844878 C22.3072156,0.431578537 21.6014049,0.218786341 20.1643083,0.137865366 C18.7287102,0.0404604878 15.1187356,0 11.9912898,0 C8.85784976,0 5.24637659,0.0404604878 3.81227707,0.136366829 C2.37817756,0.218786341 1.67086829,0.43008 1.01450927,1.58844878 C0.344663415,2.74382049 0,4.73387707 0,8.23745561 C0,8.24045268 0,8.24195122 0,8.24195122 C0,8.24494829 0,8.24644683 0,8.24644683 L0,8.2494439 C0,11.7380371 0.344663415,13.743079 1.01450927,14.8864624 C1.67086829,16.0433327 2.37667902,16.2531278 3.81077854,16.3505327 C5.24637659,16.4344507 8.85784976,16.4839024 11.9912898,16.4839024 C15.1187356,16.4839024 18.7287102,16.4344507 20.1658068,16.3520312 C21.6029034,16.2546263 22.3087141,16.0448312 22.959079,14.887961 C23.634919,13.7445776 23.9765854,11.7395356 23.9765854,8.25094244 C23.9765854,8.25094244 23.9765854,8.24644683 23.9765854,8.24344976 C23.9765854,8.24344976 23.9765854,8.24045268 23.9765854,8.23895415 C23.9765854,4.73387707 23.634919,2.74382049 22.9575805,1.58844878 Z M8.99121951,12.737561 L8.99121951,3.74634146 L16.4839024,8.24195122 L8.99121951,12.737561 Z" id="Shape"></path>
            </g>
        </g>
    </g>
</svg>