<?xml version="1.0" encoding="UTF-8"?>
<svg width="12px" height="13px" viewBox="0 0 12 13" version="1.1" xmlns="http://www.w3.org/2000/svg" xmlns:xlink="http://www.w3.org/1999/xlink">
    <!-- Generator: Sketch 57.1 (83088) - https://sketch.com -->
    <title>Combined Shape</title>
    <desc>Created with Sketch.</desc>
    <g id="Page-1" stroke="none" stroke-width="1" fill="none" fill-rule="evenodd">
        <g id="Desktop-HD" transform="translate(-638.000000, -580.000000)" fill="#FFFFFF">
            <path d="M644.147186,580.944977 C644.402523,580.944977 644.648188,581.04265 644.833819,581.217973 L649.656658,585.772996 C650.058171,586.152213 650.076246,586.78512 649.697029,587.186633 C649.683959,587.200472 649.670497,587.213934 649.656658,587.227004 L644.833819,591.782027 C644.432306,592.161244 643.799399,592.143169 643.420182,591.741656 C643.244859,591.556025 643.147186,591.31036 643.147186,591.055023 L643.147,588.444 L639,588.444544 C638.447715,588.444544 638,587.996828 638,587.444544 L638,585.555456 C638,585.003172 638.447715,584.555456 639,584.555456 L643.147,584.555 L643.147186,581.944977 C643.147186,581.392692 643.594902,580.944977 644.147186,580.944977 Z" id="Combined-Shape"></path>
        </g>
    </g>
</svg>