<?xml version="1.0" encoding="UTF-8"?>
<svg width="24px" height="20px" viewBox="0 0 24 20" version="1.1" xmlns="http://www.w3.org/2000/svg" xmlns:xlink="http://www.w3.org/1999/xlink">
    <!-- Generator: Sketch 57.1 (83088) - https://sketch.com -->
    <title>001-twitter</title>
    <desc>Created with Sketch.</desc>
    <g id="Page-1" stroke="none" stroke-width="1" fill="none" fill-rule="evenodd">
        <g id="Desktop-HD" transform="translate(-344.000000, -4271.000000)" fill="#FFFFFF" fill-rule="nonzero">
            <g id="001-twitter" transform="translate(344.000000, 4271.000000)">
                <path d="M23.9765854,2.3062478 C23.0849561,2.69736585 22.1348839,2.95661268 21.1443512,3.08248976 C22.1633561,2.4740839 22.9410966,1.51801756 23.3067395,0.365642927 C22.3566673,0.932089756 21.3076917,1.33219902 20.1897834,1.55548098 C19.2876644,0.594919024 18.00192,0 16.5992898,0 C13.8779473,0 11.6870868,2.20884293 11.6870868,4.91669854 C11.6870868,5.30631805 11.7200546,5.6809522 11.8009756,6.0376039 C7.71446634,5.83829854 4.09849756,3.87971122 1.66936976,0.896124878 C1.2452839,1.63190634 0.996526829,2.4740839 0.996526829,3.38069854 C0.996526829,5.0830361 1.87317073,6.59206244 3.17989463,7.46570927 C2.39016585,7.4507239 1.61542244,7.2214478 0.959063415,6.86030049 C0.959063415,6.87528585 0.959063415,6.89476683 0.959063415,6.9142478 C0.959063415,9.30291512 2.66289951,11.2869776 4.89721756,11.7440312 C4.49710829,11.8534244 4.06103415,11.9058732 3.6084761,11.9058732 C3.29378341,11.9058732 2.97609366,11.8878907 2.67788488,11.8219551 C3.31476293,13.7685541 5.12199805,15.1996566 7.27089951,15.2461112 C5.59853268,16.5543337 3.47510634,17.3425639 1.17635122,17.3425639 C0.773244878,17.3425639 0.386622439,17.3245815 -5.68434189e-14,17.2751298 C2.17737366,18.6792585 4.75785366,19.4809756 7.5406361,19.4809756 C16.5858029,19.4809756 21.5309737,11.9882927 21.5309737,5.49363512 C21.5309737,5.27634732 21.523481,5.0665522 21.5129912,4.85825561 C22.4885385,4.16593171 23.308238,3.3012761 23.9765854,2.3062478 Z" id="Path"></path>
            </g>
        </g>
    </g>
</svg>