<?xml version="1.0" encoding="UTF-8"?>
<svg width="14px" height="12px" viewBox="0 0 14 12" version="1.1" xmlns="http://www.w3.org/2000/svg" xmlns:xlink="http://www.w3.org/1999/xlink">
    <!-- Generator: Sketch 57.1 (83088) - https://sketch.com -->
    <title>Path</title>
    <desc>Created with Sketch.</desc>
    <g id="Page-1" stroke="none" stroke-width="1" fill="none" fill-rule="evenodd">
        <g id="Desktop-HD" transform="translate(-401.000000, -581.000000)" fill="#FFFFFF" fill-rule="nonzero">
            <path d="M415,584.944056 C415,586.104895 414.485714,587.13986 413.685714,587.853147 L413.685714,587.853147 L409.314286,592.146853 C408.871429,592.58042 408.442857,593 408,593 C407.557143,593 407.128571,592.566434 406.685714,592.146853 L402.314286,587.853147 L402.314286,587.853147 C401.514286,587.13986 401,586.090909 401,584.944056 C401,582.762238 402.8,581 405.028571,581 C406.214286,581 407.271429,581.503497 408,582.286713 C408.742857,581.48951 409.8,581 410.971429,581 C413.2,581 415,582.762238 415,584.944056 Z" id="Path"></path>
        </g>
    </g>
</svg>