<?xml version="1.0" encoding="UTF-8"?>
<svg width="18px" height="17px" viewBox="0 0 18 17" version="1.1" xmlns="http://www.w3.org/2000/svg" xmlns:xlink="http://www.w3.org/1999/xlink">
    <!-- Generator: Sketch 55.2 (78181) - https://sketchapp.com -->
    <title>menu</title>
    <desc>Created with Sketch.</desc>
    <g id="Policies" stroke="none" stroke-width="1" fill="none" fill-rule="evenodd">
        <g id="menu" fill="#FFFFFF" fill-rule="nonzero">
            <path d="M1,0 L17,0 C17.552285,0 18,0.4477153 18,1 L18,2 C18,2.5522847 17.552285,3 17,3 L1,3 C0.447715,3 0,2.5522847 0,2 L0,1 C0,0.4477153 0.447715,0 1,0 Z M1,14 L17,14 C17.552285,14 18,14.4477153 18,15 L18,16 C18,16.5522847 17.552285,17 17,17 L1,17 C0.447715,17 0,16.5522847 0,16 L0,15 C0,14.4477153 0.447715,14 1,14 Z M1,7 L17,7 C17.552285,7 18,7.4477153 18,8 L18,9 C18,9.5522847 17.552285,10 17,10 L1,10 C0.447715,10 0,9.5522847 0,9 L0,8 C0,7.4477153 0.447715,7 1,7 Z" id="Combined-Shape"></path>
        </g>
    </g>
</svg>