<?xml version="1.0" encoding="UTF-8"?>
<svg width="14px" height="15px" viewBox="0 0 14 15" version="1.1" xmlns="http://www.w3.org/2000/svg" xmlns:xlink="http://www.w3.org/1999/xlink">
    <!-- Generator: Sketch 55.2 (78181) - https://sketchapp.com -->
    <title>menu-close</title>
    <desc>Created with Sketch.</desc>
    <g id="Policies" stroke="none" stroke-width="1" fill="none" fill-rule="evenodd">
        <g id="Policies---RubyConf-2019" transform="translate(-1415.000000, -526.000000)" fill="#FFFFFF" fill-rule="nonzero">
            <g id="menu-close" transform="translate(1414.000000, 526.000000)">
                <path d="M7.97918472,5.35786438 L12.5753788,0.761670299 C12.9659031,0.371146007 13.5990681,0.371146007 13.9895924,0.761670299 L14.6966991,1.46877708 C15.0872234,1.85930137 15.0872234,2.49246635 14.6966991,2.88299064 L10.1005051,7.47918472 L14.6966991,12.0753788 C15.0872234,12.4659031 15.0872234,13.0990681 14.6966991,13.4895924 L13.9895924,14.1966991 C13.5990681,14.5872234 12.9659031,14.5872234 12.5753788,14.1966991 L7.97918472,9.60050506 L3.38299064,14.1966991 C2.99246635,14.5872234 2.35930137,14.5872234 1.96877708,14.1966991 L1.2616703,13.4895924 C0.871146007,13.0990681 0.871146007,12.4659031 1.2616703,12.0753788 L5.85786438,7.47918472 L1.2616703,2.88299064 C0.871146007,2.49246635 0.871146007,1.85930137 1.2616703,1.46877708 L1.96877708,0.761670299 C2.35930137,0.371146007 2.99246635,0.371146007 3.38299064,0.761670299 L7.97918472,5.35786438 Z" id="Combined-Shape"></path>
            </g>
        </g>
    </g>
</svg>