<?xml version="1.0" encoding="UTF-8"?>
<svg width="72px" height="55px" viewBox="0 0 72 55" version="1.1" xmlns="http://www.w3.org/2000/svg" xmlns:xlink="http://www.w3.org/1999/xlink">
    <!-- Generator: Sketch 59.1 (86144) - https://sketch.com -->
    <title>Combined Shape</title>
    <desc>Created with Sketch.</desc>
    <g id="Schedule" stroke="none" stroke-width="1" fill="none" fill-rule="evenodd">
        <g id="Vendors" transform="translate(-1018.000000, -492.000000)" fill="#7C878D">
            <path d="M1054,492 C1058.41828,492 1062,495.581722 1062,500 C1062,502.214222 1061.10044,504.218342 1059.64685,505.666839 C1061.52272,506.41143 1062.95245,507.809812 1063.5,510 L1064.25,513 L1088.5,513 C1089.32843,513 1090,513.671573 1090,514.5 C1090,515.328427 1089.32843,516 1088.5,516 L1084,516 L1084,518 C1086.76142,518 1089,520.238576 1089,523 L1089,537 C1089,539.761424 1086.76142,542 1084,542 L1084,542.5 C1084,544.985281 1081.98528,547 1079.5,547 C1077.01472,547 1075,544.985281 1075,542.5 L1075,542 L1033,542 L1033,542.5 C1033,544.985281 1030.98528,547 1028.5,547 C1026.01472,547 1024,544.985281 1024,542.5 L1024,542 C1021.23858,542 1019,539.761424 1019,537 L1019,523 C1019,520.238576 1021.23858,518 1024,518 L1024,516 L1019.5,516 C1018.67157,516 1018,515.328427 1018,514.5 C1018,513.671573 1018.67157,513 1019.5,513 L1043.75,513 L1044.5,510 C1045.04755,507.809812 1046.47728,506.41143 1048.35303,505.666182 C1046.89956,504.218342 1046,502.214222 1046,500 C1046,495.581722 1049.58172,492 1054,492 Z M1030,542 L1027,542 L1027,542.5 C1027,543.328427 1027.67157,544 1028.5,544 C1029.32843,544 1030,543.328427 1030,542.5 L1030,542 Z M1081,542 L1078,542 L1078,542.5 C1078,543.328427 1078.67157,544 1079.5,544 C1080.32843,544 1081,543.328427 1081,542.5 L1081,542 Z M1084,521 L1024,521 C1022.89543,521 1022,521.895431 1022,523 L1022,537 C1022,538.104569 1022.89543,539 1024,539 L1084,539 C1085.10457,539 1086,538.104569 1086,537 L1086,523 C1086,521.895431 1085.10457,521 1084,521 Z M1071,524 C1073.20914,524 1075,525.790861 1075,528 L1075,532 C1075,534.209139 1073.20914,536 1071,536 L1037,536 C1034.79086,536 1033,534.209139 1033,532 L1033,528 C1033,525.790861 1034.79086,524 1037,524 L1071,524 Z M1071,527 L1037,527 C1036.44772,527 1036,527.447715 1036,528 L1036,532 C1036,532.552285 1036.44772,533 1037,533 L1071,533 C1071.55228,533 1072,532.552285 1072,532 L1072,528 C1072,527.447715 1071.55228,527 1071,527 Z M1081,516 L1078,516 L1078,518 L1081,518 L1081,516 Z M1075,516 L1033,516 L1033,518 L1075,518 L1075,516 Z M1030,516 L1027,516 L1027,518 L1030,518 L1030,516 Z M1055.81534,508 L1052.18466,508 C1049.9265,508 1047.95811,508.536867 1047.41043,510.727607 L1046.84233,513 L1061.15767,513 L1060.58957,510.727607 C1060.04189,508.536867 1058.0735,508 1055.81534,508 Z M1054,495 C1051.23858,495 1049,497.238576 1049,500 C1049,502.761424 1051.23858,505 1054,505 C1056.76142,505 1059,502.761424 1059,500 C1059,497.238576 1056.76142,495 1054,495 Z" id="Combined-Shape"></path>
        </g>
    </g>
</svg>