<?xml version="1.0" encoding="UTF-8"?>
<svg width="84px" height="45px" viewBox="0 0 84 45" version="1.1" xmlns="http://www.w3.org/2000/svg" xmlns:xlink="http://www.w3.org/1999/xlink">
    <!-- Generator: Sketch 59.1 (86144) - https://sketch.com -->
    <title>Combined Shape</title>
    <desc>Created with Sketch.</desc>
    <g id="Schedule" stroke="none" stroke-width="1" fill="none" fill-rule="evenodd">
        <g id="Vendors" transform="translate(-345.000000, -497.000000)" fill="#7C878D" fill-rule="nonzero">
            <path d="M424,497 C426.761424,497 429,499.238576 429,502 L429,537 C429,539.761424 426.761424,542 424,542 L350,542 C347.238576,542 345,539.761424 345,537 L345,502 C345,499.238576 347.238576,497 350,497 L424,497 Z M366,539 L372,539 L372,532 L366,532 L366,539 Z M399,532 L375,532 L375,539 L381,539 L381,532 L384,532 L384,539 L390,539 L390,532 L393,532 L393,539 L399,539 L399,532 Z M426,532 L402,532 L402,539 L408,539 L408,532 L411,532 L411,539 L417,539 L417,532 L420,532 L420,539 L424,539 C425.104569,539 426,538.104569 426,537 L426,532 Z M399,510 L375,510 L375,529 L399,529 L399,510 Z M426,510 L402,510 L402,529 L426,529 L426,510 Z M399,500 L393,500 L393,507 L399,507 L399,500 Z M424,500 L420,500 L420,507 L426,507 L426,502 C426,500.895431 425.104569,500 424,500 Z M372,500 L366,500 L366,507 L372,507 L372,500 Z M363,507 L363,500 L357,500 L357,507 L363,507 Z M354,500 L350,500 C348.895431,500 348,500.895431 348,502 L348,507 L354,507 L354,500 Z M390,507 L390,500 L384,500 L384,507 L390,507 Z M381,500 L375,500 L375,507 L381,507 L381,500 Z M417,507 L417,500 L411,500 L411,507 L417,507 Z M408,500 L402,500 L402,507 L408,507 L408,500 Z M348,529 L372,529 L372,510 L348,510 L348,529 Z M357,532 L357,539 L363,539 L363,532 L357,532 Z M348,532 L348,537 C348,538.104569 348.895431,539 350,539 L354,539 L354,532 L348,532 Z" id="Combined-Shape"></path>
        </g>
    </g>
</svg>