<?xml version="1.0" encoding="UTF-8"?>
<svg width="261px" height="47px" viewBox="0 0 261 47" version="1.1" xmlns="http://www.w3.org/2000/svg" xmlns:xlink="http://www.w3.org/1999/xlink">
    <!-- Generator: Sketch 57.1 (83088) - https://sketch.com -->
    <title>Group 2</title>
    <desc>Created with Sketch.</desc>
    <g id="Page-1" stroke="none" stroke-width="1" fill="none" fill-rule="evenodd">
        <g id="Group-2" transform="translate(0.000000, -8.000000)">
            <path d="M26.1022791,33.8646365 C24.8498043,36.6004216 24.6346157,37.3369892 20.7196193,41.6760373 C16.8046229,46.0150854 10.8796657,50.2478169 10.8796657,53.0326194 C10.8796657,56.2492193 9.06365855,54.0363876 9.06365855,50.4010232 C9.06365855,49.5100798 9.7212336,47.4696611 11.7617732,45.5093025 C14.7552692,42.6334332 23.3497837,33.329449 24.6611231,31.1621698 C26.2313501,28.5670213 27.907633,29.9211961 26.1022791,33.8646365 Z M6.40948646,26.7807167 C4.76639553,29.8577846 2.50700745,39.6077234 4.87224107,44.7405878 C7.23747469,49.8734522 6.40948646,49.8734522 4.20016792,46.3984051 C2.90983488,44.3688344 0.527384692,40.6991439 0.0636585506,36.5623172 C-0.266610914,33.6160361 0.724217461,30.0043516 2.20198822,28.5182403 C5.75467356,24.9455035 8.05257738,23.7036488 6.40948646,26.7807167 Z M22.4847547,20.7968542 C22.8448876,23.0892196 23.2580931,26.9657239 21.2574077,30.6690117 C19.1992544,34.4786731 13.1180534,40.8916273 11.4758982,42.5362394 C6.95063904,47.0682693 6.75998846,45.2019931 6.30934737,41.6344354 C5.52112025,35.3943347 6.95063904,29.2505073 9.06365855,27.5150854 C12.0037852,25.1003608 16.7993872,21.4047055 18.1566846,19.3354495 C21.307016,14.5326391 21.7541444,16.1462773 22.4847547,20.7968542 Z M16.2253256,8.61872668 C18.560823,9.25343176 19.0634339,11.908222 19.0634339,13.1739505 C19.0634339,14.4396791 17.3579753,18.5785326 14.7858263,20.3799805 C13.9611515,20.9575554 12.9923427,20.1034279 13.9611515,16.9076289 C14.6127171,14.7583167 13.9344303,11.4107745 13.5099554,10.4217824 C12.0636586,7.05202862 13.8898282,7.9840216 16.2253256,8.61872668 Z" id="flame" fill="#FFFFFF"></path>
            <path d="M63.964,35 L58.348,35 L53.992,17.504 L53.92,17.504 L49.636,35 L43.912,35 L37.108,9.296 L42.76,9.296 L46.828,26.792 L46.9,26.792 L51.364,9.296 L56.656,9.296 L61.048,27.008 L61.12,27.008 L65.332,9.296 L70.876,9.296 L63.964,35 Z M73.468,9.296 L79.12,9.296 L79.12,35 L73.468,35 L73.468,9.296 Z M84.088,9.296 L89.704,9.296 L100.432,26.54 L100.504,26.54 L100.504,9.296 L105.796,9.296 L105.796,35 L100.144,35 L89.452,17.792 L89.38,17.792 L89.38,35 L84.088,35 L84.088,9.296 Z M116.452,14.048 L108.748,14.048 L108.748,9.296 L129.808,9.296 L129.808,14.048 L122.104,14.048 L122.104,35 L116.452,35 L116.452,14.048 Z M132.76,9.296 L151.984,9.296 L151.984,14.048 L138.412,14.048 L138.412,19.556 L150.868,19.556 L150.868,23.948 L138.412,23.948 L138.412,30.248 L152.272,30.248 L152.272,35 L132.76,35 L132.76,9.296 Z M161.74,20.924 L167.932,20.924 C169.228006,20.924 170.199997,20.6360029 170.848,20.06 C171.496003,19.4839971 171.82,18.5480065 171.82,17.252 C171.82,16.0039938 171.496003,15.0980028 170.848,14.534 C170.199997,13.9699972 169.228006,13.688 167.932,13.688 L161.74,13.688 L161.74,20.924 Z M156.088,9.296 L169.948,9.296 C171.100006,9.296 172.137995,9.48199814 173.062,9.854 C173.986005,10.2260019 174.777997,10.7359968 175.438,11.384 C176.098003,12.0320032 176.601998,12.7819957 176.95,13.634 C177.298002,14.4860043 177.472,15.4039951 177.472,16.388 C177.472,17.9000076 177.154003,19.2079945 176.518,20.312 C175.881997,21.4160055 174.844007,22.2559971 173.404,22.832 L173.404,22.904 C174.100003,23.096001 174.675998,23.389998 175.132,23.786 C175.588,24.182002 175.959999,24.6499973 176.248,25.19 C176.536001,25.7300027 176.745999,26.3239968 176.878,26.972 C177.010001,27.6200032 177.1,28.2679968 177.148,28.916 C177.172,29.324002 177.196,29.8039972 177.22,30.356 C177.244,30.9080028 177.286,31.4719971 177.346,32.048 C177.406,32.6240029 177.501999,33.1699974 177.634,33.686 C177.766001,34.2020026 177.963999,34.6399982 178.228,35 L172.576,35 C172.263998,34.1839959 172.072,33.2120056 172,32.084 C171.928,30.9559944 171.820001,29.8760052 171.676,28.844 C171.483999,27.4999933 171.076003,26.5160031 170.452,25.892 C169.827997,25.2679969 168.808007,24.956 167.392,24.956 L161.74,24.956 L161.74,35 L156.088,35 L156.088,9.296 Z M182.08,9.296 L200.152,9.296 L200.152,14.048 L187.732,14.048 L187.732,19.988 L198.496,19.988 L198.496,24.38 L187.732,24.38 L187.732,35 L182.08,35 L182.08,9.296 Z M203.428,9.296 L209.08,9.296 L209.08,35 L203.428,35 L203.428,9.296 Z M219.7,20.924 L225.892,20.924 C227.188006,20.924 228.159997,20.6360029 228.808,20.06 C229.456003,19.4839971 229.78,18.5480065 229.78,17.252 C229.78,16.0039938 229.456003,15.0980028 228.808,14.534 C228.159997,13.9699972 227.188006,13.688 225.892,13.688 L219.7,13.688 L219.7,20.924 Z M214.048,9.296 L227.908,9.296 C229.060006,9.296 230.097995,9.48199814 231.022,9.854 C231.946005,10.2260019 232.737997,10.7359968 233.398,11.384 C234.058003,12.0320032 234.561998,12.7819957 234.91,13.634 C235.258002,14.4860043 235.432,15.4039951 235.432,16.388 C235.432,17.9000076 235.114003,19.2079945 234.478,20.312 C233.841997,21.4160055 232.804007,22.2559971 231.364,22.832 L231.364,22.904 C232.060003,23.096001 232.635998,23.389998 233.092,23.786 C233.548,24.182002 233.919999,24.6499973 234.208,25.19 C234.496001,25.7300027 234.705999,26.3239968 234.838,26.972 C234.970001,27.6200032 235.06,28.2679968 235.108,28.916 C235.132,29.324002 235.156,29.8039972 235.18,30.356 C235.204,30.9080028 235.246,31.4719971 235.306,32.048 C235.366,32.6240029 235.461999,33.1699974 235.594,33.686 C235.726001,34.2020026 235.923999,34.6399982 236.188,35 L230.536,35 C230.223998,34.1839959 230.032,33.2120056 229.96,32.084 C229.888,30.9559944 229.780001,29.8760052 229.636,28.844 C229.443999,27.4999933 229.036003,26.5160031 228.412,25.892 C227.787997,25.2679969 226.768007,24.956 225.352,24.956 L219.7,24.956 L219.7,35 L214.048,35 L214.048,9.296 Z M240.04,9.296 L259.264,9.296 L259.264,14.048 L245.692,14.048 L245.692,19.556 L258.148,19.556 L258.148,23.948 L245.692,23.948 L245.692,30.248 L259.552,30.248 L259.552,35 L240.04,35 L240.04,9.296 Z" id="WINTERFIRE" fill="#FEFEFD" fill-rule="nonzero"></path>
            <g id="color-strip" transform="translate(37.000000, 49.000000)">
                <path d="M2,0 L32,0 L32,0 L32,6 L2,6 C0.8954305,6 1.3527075e-16,5.1045695 0,4 L0,2 C-1.3527075e-16,0.8954305 0.8954305,2.02906125e-16 2,0 Z" id="Rectangle" fill="#FEFEFD"></path>
                <rect id="Rectangle-Copy" fill="#D7E9E8" x="32" y="0" width="32" height="6"></rect>
                <rect id="Rectangle-Copy-2" fill="#B6DAE4" x="64" y="0" width="32" height="6"></rect>
                <rect id="Rectangle-Copy-3" fill="#9AD1E1" x="96" y="0" width="32" height="6"></rect>
                <rect id="Rectangle-Copy-4" fill="#6BC7EB" x="128" y="0" width="32" height="6"></rect>
                <rect id="Rectangle-Copy-5" fill="#23A8DA" x="160" y="0" width="32" height="6"></rect>
                <path d="M192,0 L222,0 C223.104569,-2.02906125e-16 224,0.8954305 224,2 L224,4 C224,5.1045695 223.104569,6 222,6 L192,6 L192,6 L192,0 Z" id="Rectangle-Copy-6" fill="#289BD2"></path>
            </g>
        </g>
    </g>
</svg>